<svg width="16" height="16" viewBox="0 0 16 16" fill="none" xmlns="http://www.w3.org/2000/svg">
<path fill-rule="evenodd" clip-rule="evenodd" d="M13.4008 0.935429C13.9865 0.349649 14.9363 0.349649 15.5221 0.935429C16.1078 1.52122 16.1078 2.47096 15.5221 3.05676L10.5827 7.99609L15.5221 12.9354C16.1078 13.5212 16.1078 14.471 15.5221 15.0567C14.9363 15.6425 13.9865 15.6425 13.4008 15.0567L8.46143 10.1174L3.52209 15.0567C2.9363 15.6425 1.98656 15.6425 1.40076 15.0567C0.814981 14.471 0.814981 13.5212 1.40076 12.9354L6.34011 7.99609L1.40076 3.05676C0.814981 2.47096 0.814981 1.52122 1.40076 0.935429C1.98656 0.349649 2.9363 0.349649 3.52209 0.935429L8.46143 5.87478L13.4008 0.935429Z" fill="#C6C6C6"/>
</svg>
