<svg width="44" height="44" viewBox="0 0 44 44" fill="none" xmlns="http://www.w3.org/2000/svg">
<path d="M0 0H38C41.3137 0 44 2.68629 44 6V38C44 41.3137 41.3137 44 38 44H0V0Z" fill="#B7005C"/>
<path d="M20 14C16.6863 14 14 16.6863 14 20C14 23.3137 16.6863 26 20 26C23.3137 26 26 23.3137 26 20C26 16.6863 23.3137 14 20 14ZM12 20C12 15.5817 15.5817 12 20 12C24.4183 12 28 15.5817 28 20C28 21.8487 27.3729 23.551 26.3199 24.9056L31.7071 30.2929C32.0976 30.6834 32.0976 31.3166 31.7071 31.7071C31.3166 32.0976 30.6834 32.0976 30.2929 31.7071L24.9056 26.3199C23.551 27.3729 21.8487 28 20 28C15.5817 28 12 24.4183 12 20Z" fill="#F4F4F4"/>
</svg>
