<svg width="160" height="160" viewBox="0 0 160 160" fill="none" xmlns="http://www.w3.org/2000/svg">
<rect x="0.5" y="0.5" width="159" height="159" fill="#F8F8F8" stroke="#383842" stroke-dasharray="2 2"/>
<path d="M84.6667 77.3333C85.7712 77.3333 86.6667 76.4379 86.6667 75.3333C86.6667 74.2288 85.7712 73.3333 84.6667 73.3333C83.5621 73.3333 82.6667 74.2288 82.6667 75.3333C82.6667 76.4379 83.5621 77.3333 84.6667 77.3333Z" fill="#32323B"/>
<path d="M68 70.6667C68 69.1939 69.1939 68 70.6667 68H89.3333C90.8061 68 92 69.1939 92 70.6667V89.3333C92 90.8061 90.8061 92 89.3333 92H70.6667C69.1939 92 68 90.8061 68 89.3333V70.6667ZM89.3333 70.6667H70.6667V81.2259L75.1671 77.6255C75.6541 77.2359 76.346 77.2359 76.833 77.6255L82.5678 82.2133L84.3906 80.3905C84.9113 79.8698 85.7555 79.8698 86.2762 80.3905L89.3333 83.4477V70.6667ZM70.6667 89.3333H89.3333V87.2189L85.3334 83.219L83.6095 84.9428C83.1291 85.4232 82.3643 85.4656 81.8338 85.0412L76 80.3742L70.6667 84.6409V89.3333Z" fill="#32323B"/>
</svg>
