<svg width="168" height="55" viewBox="0 0 168 55" fill="none" xmlns="http://www.w3.org/2000/svg">
<path d="M1.86143 3.432H9.42943L9.42143 5.08H3.83743V8.408H8.76543V10.032H3.83743V15H1.86143V3.432ZM14.0059 15.16C13.2165 15.16 12.5285 14.992 11.9419 14.656C11.3552 14.3147 10.8992 13.8267 10.5739 13.192C10.2539 12.5573 10.0939 11.7947 10.0939 10.904C10.0939 10.04 10.2485 9.28267 10.5579 8.632C10.8725 7.98133 11.3232 7.47467 11.9099 7.112C12.4965 6.74933 13.1979 6.568 14.0139 6.568C14.8032 6.568 15.4885 6.74133 16.0699 7.088C16.6512 7.43467 17.0992 7.93067 17.4139 8.576C17.7339 9.22133 17.8939 9.99733 17.8939 10.904C17.8939 11.7413 17.7419 12.48 17.4379 13.12C17.1392 13.7547 16.6992 14.2533 16.1179 14.616C15.5419 14.9787 14.8379 15.16 14.0059 15.16ZM14.0139 13.68C14.4619 13.68 14.8299 13.5573 15.1179 13.312C15.4112 13.0667 15.6272 12.7307 15.7659 12.304C15.9099 11.8773 15.9819 11.392 15.9819 10.848C15.9819 10.3413 15.9179 9.87467 15.7899 9.448C15.6672 9.02133 15.4592 8.68 15.1659 8.424C14.8779 8.16267 14.4939 8.032 14.0139 8.032C13.5605 8.032 13.1845 8.152 12.8859 8.392C12.5925 8.62667 12.3712 8.95733 12.2219 9.384C12.0779 9.80533 12.0059 10.2933 12.0059 10.848C12.0059 11.3493 12.0699 11.816 12.1979 12.248C12.3312 12.6747 12.5445 13.0213 12.8379 13.288C13.1312 13.5493 13.5232 13.68 14.0139 13.68ZM19.2386 15V6.728H21.1026V8.52C21.2359 8.10933 21.4252 7.76 21.6706 7.472C21.9212 7.17867 22.2146 6.95467 22.5506 6.8C22.8866 6.64533 23.2519 6.568 23.6466 6.568C23.7426 6.568 23.8359 6.57333 23.9266 6.584C24.0172 6.59467 24.0839 6.61333 24.1266 6.64V8.504C24.0679 8.47733 23.9906 8.45867 23.8946 8.448C23.8039 8.43733 23.7239 8.432 23.6546 8.432C23.2546 8.4 22.8999 8.416 22.5906 8.48C22.2866 8.544 22.0279 8.65333 21.8146 8.808C21.6066 8.95733 21.4492 9.14933 21.3426 9.384C21.2359 9.61333 21.1826 9.88267 21.1826 10.192V15H19.2386ZM25.2314 15V6.728H27.1274V7.912C27.3674 7.54933 27.6927 7.23467 28.1034 6.968C28.5194 6.70133 29.0474 6.568 29.6874 6.568C29.9807 6.568 30.2767 6.61867 30.5754 6.72C30.8794 6.82133 31.1594 6.97067 31.4154 7.168C31.6767 7.36533 31.8847 7.61067 32.0394 7.904C32.3007 7.51467 32.6474 7.19467 33.0794 6.944C33.5167 6.69333 34.0074 6.568 34.5514 6.568C34.8501 6.568 35.1567 6.616 35.4714 6.712C35.7914 6.808 36.0847 6.968 36.3514 7.192C36.6181 7.416 36.8341 7.72267 36.9994 8.112C37.1647 8.496 37.2474 8.97867 37.2474 9.56V15H35.3034V9.792C35.3034 9.38133 35.2314 9.05867 35.0874 8.824C34.9434 8.58933 34.7567 8.424 34.5274 8.328C34.3034 8.22667 34.0634 8.176 33.8074 8.176C33.5781 8.176 33.3381 8.22133 33.0874 8.312C32.8421 8.40267 32.6314 8.552 32.4554 8.76C32.2847 8.968 32.1994 9.248 32.1994 9.6V15H30.2554V9.48C30.2554 9.192 30.1807 8.952 30.0314 8.76C29.8821 8.568 29.6927 8.424 29.4634 8.328C29.2394 8.22667 29.0101 8.176 28.7754 8.176C28.5354 8.176 28.2901 8.22667 28.0394 8.328C27.7941 8.42933 27.5887 8.584 27.4234 8.792C27.2581 9 27.1754 9.26933 27.1754 9.6V15H25.2314ZM41.2557 15.16C40.7277 15.16 40.2531 15.064 39.8317 14.872C39.4157 14.6747 39.0877 14.3947 38.8477 14.032C38.6131 13.664 38.4957 13.2187 38.4957 12.696C38.4957 11.784 38.8237 11.096 39.4797 10.632C40.1411 10.168 41.1944 9.92533 42.6397 9.904L43.8717 9.872V9.312C43.8717 8.87467 43.7411 8.53333 43.4797 8.288C43.2237 8.03733 42.8237 7.91467 42.2797 7.92C41.8797 7.92533 41.5117 8.02133 41.1757 8.208C40.8451 8.38933 40.6264 8.696 40.5197 9.128H38.8637C38.8957 8.56267 39.0584 8.09067 39.3517 7.712C39.6504 7.328 40.0584 7.04267 40.5757 6.856C41.0931 6.664 41.6904 6.568 42.3677 6.568C43.1571 6.568 43.7997 6.672 44.2957 6.88C44.7917 7.088 45.1571 7.38933 45.3917 7.784C45.6264 8.17333 45.7437 8.64533 45.7437 9.2V15H44.1037L43.9517 13.512C43.6531 14.136 43.2744 14.568 42.8157 14.808C42.3624 15.0427 41.8424 15.16 41.2557 15.16ZM41.8877 13.84C42.1277 13.84 42.3651 13.7973 42.5997 13.712C42.8344 13.6213 43.0477 13.5013 43.2397 13.352C43.4317 13.1973 43.5837 13.0267 43.6957 12.84C43.8131 12.6533 43.8717 12.4587 43.8717 12.256V10.952L42.8557 10.968C42.3544 10.9733 41.9171 11.0267 41.5437 11.128C41.1704 11.2293 40.8771 11.392 40.6637 11.616C40.4557 11.8347 40.3517 12.128 40.3517 12.496C40.3517 12.9173 40.4984 13.248 40.7917 13.488C41.0851 13.7227 41.4504 13.84 41.8877 13.84ZM50.6416 15.16C50.0656 15.16 49.5189 15.0693 49.0016 14.888C48.4896 14.7013 48.0576 14.4107 47.7056 14.016C47.3589 13.6213 47.1402 13.112 47.0496 12.488H48.7616C48.8362 12.792 48.9669 13.04 49.1536 13.232C49.3456 13.424 49.5722 13.5653 49.8336 13.656C50.0949 13.7413 50.3616 13.784 50.6336 13.784C51.1296 13.784 51.5296 13.6987 51.8336 13.528C52.1429 13.3573 52.2976 13.0933 52.2976 12.736C52.2976 12.4747 52.2122 12.2667 52.0416 12.112C51.8709 11.9573 51.5989 11.84 51.2256 11.76L49.6496 11.4C48.9509 11.2453 48.3882 10.9893 47.9616 10.632C47.5402 10.2747 47.3269 9.77067 47.3216 9.12C47.3162 8.62933 47.4389 8.192 47.6896 7.808C47.9402 7.424 48.3136 7.12267 48.8096 6.904C49.3056 6.68 49.9189 6.568 50.6496 6.568C51.6149 6.568 52.3882 6.784 52.9696 7.216C53.5509 7.64267 53.8496 8.25333 53.8656 9.048H52.2096C52.1509 8.69067 51.9829 8.41333 51.7056 8.216C51.4282 8.01333 51.0682 7.912 50.6256 7.912C50.1669 7.912 49.7909 8 49.4976 8.176C49.2042 8.352 49.0576 8.62133 49.0576 8.984C49.0576 9.23467 49.1696 9.432 49.3936 9.576C49.6176 9.72 49.9536 9.84267 50.4016 9.944L51.8896 10.304C52.3162 10.4107 52.6656 10.5547 52.9376 10.736C53.2096 10.9173 53.4229 11.1173 53.5776 11.336C53.7322 11.5493 53.8389 11.7707 53.8976 12C53.9616 12.224 53.9936 12.432 53.9936 12.624C53.9936 13.1573 53.8549 13.6133 53.5776 13.992C53.3056 14.3653 52.9189 14.6533 52.4176 14.856C51.9162 15.0587 51.3242 15.16 50.6416 15.16ZM61.4066 15.16C60.3132 15.16 59.4546 14.784 58.8306 14.032C58.2066 13.28 57.8946 12.2107 57.8946 10.824C57.8946 9.96 58.0199 9.21067 58.2706 8.576C58.5266 7.936 58.8999 7.44267 59.3906 7.096C59.8866 6.744 60.4999 6.568 61.2306 6.568C61.5719 6.568 61.8812 6.61067 62.1586 6.696C62.4412 6.776 62.6919 6.88267 62.9106 7.016C63.1292 7.14933 63.3132 7.296 63.4626 7.456C63.6172 7.616 63.7372 7.776 63.8226 7.936V3.112H65.7746V15H64.3346L64.1186 13.304C64.0546 13.5013 63.9586 13.7093 63.8306 13.928C63.7079 14.1413 63.5399 14.3413 63.3266 14.528C63.1186 14.7147 62.8572 14.8667 62.5426 14.984C62.2279 15.1013 61.8492 15.16 61.4066 15.16ZM61.8066 13.728C62.5052 13.728 63.0146 13.5013 63.3346 13.048C63.6599 12.5893 63.8226 11.832 63.8226 10.776C63.8172 10.1733 63.7426 9.66667 63.5986 9.256C63.4599 8.84533 63.2439 8.536 62.9506 8.328C62.6626 8.12 62.2892 8.016 61.8306 8.016C61.2439 8.016 60.7612 8.232 60.3826 8.664C60.0039 9.096 59.8146 9.8 59.8146 10.776C59.8146 11.7467 59.9879 12.4827 60.3346 12.984C60.6812 13.48 61.1719 13.728 61.8066 13.728ZM69.1298 11.312C69.1244 11.7813 69.1991 12.1973 69.3538 12.56C69.5084 12.9227 69.7378 13.208 70.0418 13.416C70.3458 13.6187 70.7218 13.72 71.1698 13.72C71.6284 13.72 72.0258 13.6187 72.3618 13.416C72.7031 13.208 72.9298 12.8933 73.0418 12.472H74.8258C74.7298 13.048 74.5004 13.536 74.1378 13.936C73.7751 14.336 73.3351 14.64 72.8178 14.848C72.3058 15.056 71.7724 15.16 71.2178 15.16C70.4178 15.16 69.7138 14.992 69.1058 14.656C68.5031 14.3147 68.0311 13.8293 67.6898 13.2C67.3538 12.5707 67.1858 11.8213 67.1858 10.952C67.1858 10.104 67.3404 9.352 67.6498 8.696C67.9591 8.03467 68.4044 7.51467 68.9858 7.136C69.5724 6.75733 70.2764 6.568 71.0978 6.568C71.9138 6.568 72.5991 6.74133 73.1538 7.088C73.7138 7.43467 74.1351 7.92 74.4178 8.544C74.7058 9.16267 74.8498 9.888 74.8498 10.72V11.312H69.1298ZM69.1298 10.104H73.0098C73.0098 9.704 72.9404 9.344 72.8018 9.024C72.6631 8.69867 72.4498 8.44267 72.1618 8.256C71.8791 8.064 71.5218 7.968 71.0898 7.968C70.6631 7.968 70.3031 8.072 70.0098 8.28C69.7164 8.488 69.4951 8.75733 69.3458 9.088C69.1964 9.41333 69.1244 9.752 69.1298 10.104ZM79.3531 17.576V6.728H81.2971L81.3131 8.032C81.4197 7.85067 81.5557 7.672 81.7211 7.496C81.8917 7.32 82.0864 7.16267 82.3051 7.024C82.5291 6.88533 82.7771 6.776 83.0491 6.696C83.3211 6.61067 83.6197 6.568 83.9451 6.568C84.5797 6.568 85.1424 6.72 85.6331 7.024C86.1237 7.32267 86.5077 7.784 86.7851 8.408C87.0677 9.032 87.2091 9.82133 87.2091 10.776C87.2091 11.752 87.0651 12.5653 86.7771 13.216C86.4891 13.8667 86.0864 14.3547 85.5691 14.68C85.0517 15 84.4517 15.16 83.7691 15.16C83.4544 15.16 83.1664 15.1173 82.9051 15.032C82.6491 14.9467 82.4197 14.8293 82.2171 14.68C82.0144 14.5307 81.8357 14.368 81.6811 14.192C81.5317 14.016 81.4064 13.832 81.3051 13.64V17.576H79.3531ZM83.3371 13.704C83.9237 13.704 84.4091 13.472 84.7931 13.008C85.1771 12.5387 85.3691 11.8053 85.3691 10.808C85.3691 9.944 85.1877 9.264 84.8251 8.768C84.4677 8.26667 83.9717 8.016 83.3371 8.016C82.6544 8.016 82.1424 8.28 81.8011 8.808C81.4597 9.33067 81.2891 9.99733 81.2891 10.808C81.2891 11.3307 81.3637 11.8133 81.5131 12.256C81.6677 12.6933 81.8944 13.0453 82.1931 13.312C82.4971 13.5733 82.8784 13.704 83.3371 13.704ZM90.8149 15.16C90.2869 15.16 89.8122 15.064 89.3909 14.872C88.9749 14.6747 88.6469 14.3947 88.4069 14.032C88.1722 13.664 88.0549 13.2187 88.0549 12.696C88.0549 11.784 88.3829 11.096 89.0389 10.632C89.7002 10.168 90.7535 9.92533 92.1989 9.904L93.4309 9.872V9.312C93.4309 8.87467 93.3002 8.53333 93.0389 8.288C92.7829 8.03733 92.3829 7.91467 91.8389 7.92C91.4389 7.92533 91.0709 8.02133 90.7349 8.208C90.4042 8.38933 90.1855 8.696 90.0789 9.128H88.4229C88.4549 8.56267 88.6175 8.09067 88.9109 7.712C89.2095 7.328 89.6175 7.04267 90.1349 6.856C90.6522 6.664 91.2495 6.568 91.9269 6.568C92.7162 6.568 93.3589 6.672 93.8549 6.88C94.3509 7.088 94.7162 7.38933 94.9509 7.784C95.1855 8.17333 95.3029 8.64533 95.3029 9.2V15H93.6629L93.5109 13.512C93.2122 14.136 92.8335 14.568 92.3749 14.808C91.9215 15.0427 91.4015 15.16 90.8149 15.16ZM91.4469 13.84C91.6869 13.84 91.9242 13.7973 92.1589 13.712C92.3935 13.6213 92.6069 13.5013 92.7989 13.352C92.9909 13.1973 93.1429 13.0267 93.2549 12.84C93.3722 12.6533 93.4309 12.4587 93.4309 12.256V10.952L92.4149 10.968C91.9135 10.9733 91.4762 11.0267 91.1029 11.128C90.7295 11.2293 90.4362 11.392 90.2229 11.616C90.0149 11.8347 89.9109 12.128 89.9109 12.496C89.9109 12.9173 90.0575 13.248 90.3509 13.488C90.6442 13.7227 91.0095 13.84 91.4469 13.84ZM100.87 17.736C99.4781 17.736 98.4088 17.5493 97.6621 17.176C96.9154 16.8027 96.5421 16.2907 96.5421 15.64C96.5421 15.3467 96.6141 15.1013 96.7581 14.904C96.9021 14.7067 97.0728 14.544 97.2701 14.416C97.4674 14.288 97.6488 14.1893 97.8141 14.12C97.9794 14.0507 98.0861 14 98.1341 13.968C98.0434 13.9147 97.9234 13.8453 97.7741 13.76C97.6248 13.6747 97.4888 13.5573 97.3661 13.408C97.2488 13.2587 97.1901 13.064 97.1901 12.824C97.1901 12.5467 97.3208 12.2907 97.5821 12.056C97.8488 11.8213 98.2461 11.6533 98.7741 11.552C98.2568 11.3013 97.8594 10.9627 97.5821 10.536C97.3048 10.1093 97.1661 9.66667 97.1661 9.208C97.1661 8.664 97.3234 8.19733 97.6381 7.808C97.9581 7.41867 98.4008 7.12 98.9661 6.912C99.5368 6.704 100.195 6.6 100.942 6.6C101.497 6.6 101.955 6.66133 102.318 6.784C102.681 6.90667 103.019 7.072 103.334 7.28C103.441 7.23733 103.59 7.17867 103.782 7.104C103.979 7.024 104.193 6.93867 104.422 6.848C104.651 6.752 104.87 6.66133 105.078 6.576C105.291 6.48533 105.473 6.41067 105.622 6.352L105.606 7.96L104.174 8.216C104.243 8.37067 104.297 8.53867 104.334 8.72C104.377 8.90133 104.398 9.06133 104.398 9.2C104.398 9.68 104.262 10.1253 103.99 10.536C103.723 10.9413 103.321 11.2667 102.782 11.512C102.249 11.7573 101.582 11.88 100.782 11.88C100.702 11.88 100.593 11.8773 100.454 11.872C100.315 11.8667 100.203 11.8613 100.118 11.856C99.6861 11.872 99.3901 11.9227 99.2301 12.008C99.0701 12.0933 98.9901 12.1867 98.9901 12.288C98.9901 12.432 99.1101 12.528 99.3501 12.576C99.5901 12.624 99.9741 12.6667 100.502 12.704C100.689 12.7147 100.934 12.728 101.238 12.744C101.542 12.76 101.881 12.7813 102.254 12.808C103.198 12.8667 103.913 13.104 104.398 13.52C104.883 13.9307 105.126 14.464 105.126 15.12C105.126 15.8827 104.774 16.5093 104.07 17C103.366 17.4907 102.299 17.736 100.87 17.736ZM101.198 16.592C101.897 16.592 102.414 16.496 102.75 16.304C103.086 16.112 103.254 15.8293 103.254 15.456C103.254 15.168 103.139 14.9333 102.91 14.752C102.681 14.5707 102.339 14.464 101.886 14.432L99.7981 14.304C99.5688 14.288 99.3501 14.3307 99.1421 14.432C98.9394 14.528 98.7741 14.664 98.6461 14.84C98.5181 15.0107 98.4541 15.2 98.4541 15.408C98.4541 15.7973 98.6781 16.0907 99.1261 16.288C99.5741 16.4907 100.265 16.592 101.198 16.592ZM100.846 10.736C101.353 10.736 101.763 10.608 102.078 10.352C102.393 10.0907 102.55 9.72267 102.55 9.248C102.55 8.75733 102.393 8.376 102.078 8.104C101.763 7.82667 101.353 7.688 100.846 7.688C100.329 7.688 99.9101 7.82667 99.5901 8.104C99.2754 8.38133 99.1181 8.76267 99.1181 9.248C99.1181 9.70667 99.2701 10.0693 99.5741 10.336C99.8781 10.6027 100.302 10.736 100.846 10.736ZM108.91 15.16C108.382 15.16 107.907 15.064 107.486 14.872C107.07 14.6747 106.742 14.3947 106.502 14.032C106.267 13.664 106.15 13.2187 106.15 12.696C106.15 11.784 106.478 11.096 107.134 10.632C107.795 10.168 108.849 9.92533 110.294 9.904L111.526 9.872V9.312C111.526 8.87467 111.395 8.53333 111.134 8.288C110.878 8.03733 110.478 7.91467 109.934 7.92C109.534 7.92533 109.166 8.02133 108.83 8.208C108.499 8.38933 108.281 8.696 108.174 9.128H106.518C106.55 8.56267 106.713 8.09067 107.006 7.712C107.305 7.328 107.713 7.04267 108.23 6.856C108.747 6.664 109.345 6.568 110.022 6.568C110.811 6.568 111.454 6.672 111.95 6.88C112.446 7.088 112.811 7.38933 113.046 7.784C113.281 8.17333 113.398 8.64533 113.398 9.2V15H111.758L111.606 13.512C111.307 14.136 110.929 14.568 110.47 14.808C110.017 15.0427 109.497 15.16 108.91 15.16ZM109.542 13.84C109.782 13.84 110.019 13.7973 110.254 13.712C110.489 13.6213 110.702 13.5013 110.894 13.352C111.086 13.1973 111.238 13.0267 111.35 12.84C111.467 12.6533 111.526 12.4587 111.526 12.256V10.952L110.51 10.968C110.009 10.9733 109.571 11.0267 109.198 11.128C108.825 11.2293 108.531 11.392 108.318 11.616C108.11 11.8347 108.006 12.128 108.006 12.496C108.006 12.9173 108.153 13.248 108.446 13.488C108.739 13.7227 109.105 13.84 109.542 13.84ZM115.293 15V6.728H117.189V7.912C117.429 7.54933 117.754 7.23467 118.165 6.968C118.581 6.70133 119.109 6.568 119.749 6.568C120.042 6.568 120.338 6.61867 120.637 6.72C120.941 6.82133 121.221 6.97067 121.477 7.168C121.738 7.36533 121.946 7.61067 122.101 7.904C122.362 7.51467 122.709 7.19467 123.141 6.944C123.578 6.69333 124.069 6.568 124.613 6.568C124.912 6.568 125.218 6.616 125.533 6.712C125.853 6.808 126.146 6.968 126.413 7.192C126.68 7.416 126.896 7.72267 127.061 8.112C127.226 8.496 127.309 8.97867 127.309 9.56V15H125.365V9.792C125.365 9.38133 125.293 9.05867 125.149 8.824C125.005 8.58933 124.818 8.424 124.589 8.328C124.365 8.22667 124.125 8.176 123.869 8.176C123.64 8.176 123.4 8.22133 123.149 8.312C122.904 8.40267 122.693 8.552 122.517 8.76C122.346 8.968 122.261 9.248 122.261 9.6V15H120.317V9.48C120.317 9.192 120.242 8.952 120.093 8.76C119.944 8.568 119.754 8.424 119.525 8.328C119.301 8.22667 119.072 8.176 118.837 8.176C118.597 8.176 118.352 8.22667 118.101 8.328C117.856 8.42933 117.65 8.584 117.485 8.792C117.32 9 117.237 9.26933 117.237 9.6V15H115.293ZM130.548 11.312C130.543 11.7813 130.618 12.1973 130.772 12.56C130.927 12.9227 131.156 13.208 131.46 13.416C131.764 13.6187 132.14 13.72 132.588 13.72C133.047 13.72 133.444 13.6187 133.78 13.416C134.122 13.208 134.348 12.8933 134.46 12.472H136.244C136.148 13.048 135.919 13.536 135.556 13.936C135.194 14.336 134.754 14.64 134.236 14.848C133.724 15.056 133.191 15.16 132.636 15.16C131.836 15.16 131.132 14.992 130.524 14.656C129.922 14.3147 129.45 13.8293 129.108 13.2C128.772 12.5707 128.604 11.8213 128.604 10.952C128.604 10.104 128.759 9.352 129.068 8.696C129.378 8.03467 129.823 7.51467 130.404 7.136C130.991 6.75733 131.695 6.568 132.516 6.568C133.332 6.568 134.018 6.74133 134.572 7.088C135.132 7.43467 135.554 7.92 135.836 8.544C136.124 9.16267 136.268 9.888 136.268 10.72V11.312H130.548ZM130.548 10.104H134.428C134.428 9.704 134.359 9.344 134.22 9.024C134.082 8.69867 133.868 8.44267 133.58 8.256C133.298 8.064 132.94 7.968 132.508 7.968C132.082 7.968 131.722 8.072 131.428 8.28C131.135 8.488 130.914 8.75733 130.764 9.088C130.615 9.41333 130.543 9.752 130.548 10.104ZM137.701 15V6.728H139.605V7.912C139.733 7.69867 139.906 7.49333 140.125 7.296C140.349 7.09867 140.623 6.93867 140.949 6.816C141.274 6.69333 141.655 6.632 142.093 6.632C142.605 6.632 143.079 6.73333 143.517 6.936C143.959 7.13867 144.314 7.456 144.581 7.888C144.853 8.32 144.989 8.87733 144.989 9.56V15H143.037V9.792C143.037 9.248 142.887 8.84533 142.589 8.584C142.29 8.31733 141.914 8.184 141.461 8.184C141.151 8.184 140.858 8.23733 140.581 8.344C140.303 8.44533 140.077 8.60267 139.901 8.816C139.73 9.024 139.645 9.28533 139.645 9.6V15H137.701ZM150.976 8.104H149.128L149.136 12.848C149.136 13.0933 149.162 13.2747 149.216 13.392C149.274 13.504 149.365 13.5787 149.488 13.616C149.616 13.648 149.786 13.664 150 13.664H151.016V14.896C150.909 14.9387 150.746 14.976 150.528 15.008C150.314 15.0453 150.026 15.064 149.664 15.064C149.008 15.064 148.498 14.9787 148.136 14.808C147.778 14.632 147.53 14.384 147.392 14.064C147.253 13.744 147.184 13.3627 147.184 12.92V8.104H145.84V6.728H147.24L147.728 4.272H149.128V6.72H150.976V8.104ZM155.696 15.16C154.907 15.16 154.219 14.992 153.632 14.656C153.046 14.3147 152.59 13.8267 152.264 13.192C151.944 12.5573 151.784 11.7947 151.784 10.904C151.784 10.04 151.939 9.28267 152.248 8.632C152.563 7.98133 153.014 7.47467 153.6 7.112C154.187 6.74933 154.888 6.568 155.704 6.568C156.494 6.568 157.179 6.74133 157.76 7.088C158.342 7.43467 158.79 7.93067 159.104 8.576C159.424 9.22133 159.584 9.99733 159.584 10.904C159.584 11.7413 159.432 12.48 159.128 13.12C158.83 13.7547 158.39 14.2533 157.808 14.616C157.232 14.9787 156.528 15.16 155.696 15.16ZM155.704 13.68C156.152 13.68 156.52 13.5573 156.808 13.312C157.102 13.0667 157.318 12.7307 157.456 12.304C157.6 11.8773 157.672 11.392 157.672 10.848C157.672 10.3413 157.608 9.87467 157.48 9.448C157.358 9.02133 157.15 8.68 156.856 8.424C156.568 8.16267 156.184 8.032 155.704 8.032C155.251 8.032 154.875 8.152 154.576 8.392C154.283 8.62667 154.062 8.95733 153.912 9.384C153.768 9.80533 153.696 10.2933 153.696 10.848C153.696 11.3493 153.76 11.816 153.888 12.248C154.022 12.6747 154.235 13.0213 154.528 13.288C154.822 13.5493 155.214 13.68 155.704 13.68Z" fill="#191919"/>
<path d="M2.46143 37H4.46143V49H2.46143V37ZM5.46143 37H6.46143V49H5.46143V37ZM7.46143 37H10.4614V49H7.46143V37ZM11.4614 37H12.4614V49H11.4614V37ZM14.4614 37H16.4614V49H14.4614V37ZM17.4614 37H20.4614V49H17.4614V37ZM21.4614 37H22.4614V49H21.4614V37Z" fill="#32323B"/>
<g clip-path="url(#clip0_810_2888)">
<path d="M64.4614 35H48.4614C47.3514 35 46.4714 35.89 46.4714 37L46.4614 49C46.4614 50.11 47.3514 51 48.4614 51H64.4614C65.5714 51 66.4614 50.11 66.4614 49V37C66.4614 35.89 65.5714 35 64.4614 35ZM64.4614 49H48.4614V43H64.4614V49ZM64.4614 39H48.4614V37H64.4614V39Z" fill="#32323B"/>
</g>
<path d="M94.08 38.6713L92.4353 40.316C90.7929 41.9584 90.7929 44.6212 92.4353 46.2637L94.08 47.9084M94.08 38.6713L97.7774 34.9739C99.4198 33.3314 102.083 33.3314 103.725 34.9739L107.422 38.6713M94.08 38.6713L96.2077 38.6713C96.4881 38.6713 96.7569 38.7833 96.9543 38.9824L100.005 42.0588C100.416 42.4736 101.087 42.4736 101.498 42.0588L104.548 38.9824C104.746 38.7833 105.014 38.6713 105.295 38.6713L107.422 38.6713M107.422 38.6713L109.067 40.316C110.71 41.9584 110.71 44.6213 109.067 46.2637L107.422 47.9084M94.08 47.9084L97.7774 51.6058C99.4198 53.2482 102.083 53.2482 103.725 51.6058L107.422 47.9084M94.08 47.9084L96.2521 47.9084C96.506 47.9084 96.7513 47.8165 96.9427 47.6497L100.061 44.9335C100.456 44.5887 101.046 44.5887 101.442 44.9335L104.56 47.6497C104.751 47.8165 104.996 47.9084 105.25 47.9084L107.422 47.9084" stroke="#32323B" stroke-width="2.10283"/>
<defs>
<clipPath id="clip0_810_2888">
<rect width="24" height="24" fill="white" transform="translate(44.4614 31)"/>
</clipPath>
</defs>
</svg>
